<svg width="456" height="456" xmlns="http://www.w3.org/2000/svg">

 <g>
  <title>Layer 1</title>
  <rect stroke="null" id="svg_6" height="456" width="456" y="3" x="2" fill="none"/>
  <circle fill="#ffffff" id="svg_2" r="54" cy="289.831" cx="134"/>
  <path fill="#ffffff" id="svg_3" d="m164,269.831l0,-154c0,-11 7,-20 17,-23l104,-30c14,-4 27,7 27,21l0,48c0,10 -7,18 -16,21l-84,25l0,92c0,41 -33,74 -74,74c-10,0 -19,-2 -28,-5c32,-0.1 54,-27.2 54,-69z"/>
  <path id="svg_4" opacity="0.96" stroke-linecap="round" stroke-width="24" stroke="#FFFFFF" fill="none" d="m249,189.831c37,3 67,34 67,72c0,41 -33,74 -74,74"/>
  <path id="svg_5" opacity="0.76" stroke-linecap="round" stroke-width="18" stroke="#FFFFFF" fill="none" d="m273,141.831c62,6 111,59 111,123c0,68 -55,123 -123,123"/>
 </g>
</svg>