<svg width="456" height="456" xmlns="http://www.w3.org/2000/svg" xmlns:svg="http://www.w3.org/2000/svg">
  <defs>
    <linearGradient id="accent" x1="-0.8" x2="1.36" y1="-0.37" y2="0.64">
      <stop offset="0" stop-color="#FFFFFF"/>
      <stop offset="1" stop-color="#BAE6FD"/>
    </linearGradient>
  </defs>
  <g class="layer">
    <title>Layer 1</title>
    <circle cx="174.55" cy="301.3" fill="#ffffff" id="svg_2" r="54" transform="matrix(1 0 0 1 -43 -10)"/>
    <path d="m249.97,193.3c37,3 67,34 67,72c0,41 -33,74 -74,74" fill="none" id="svg_4" opacity="0.98" stroke="url(#accent)" stroke-linecap="round" stroke-width="24"/>
    <path d="m273.97,145.3c62,6 111,59 111,123c0,68 -55,123 -123,123" fill="none" id="svg_5" opacity="0.82" stroke="#C4B5FD" stroke-linecap="round" stroke-width="18"/>
    <path d="m164.97,272.3l0,-154c0,-11 7,-20 17,-23l104,-30c14,-4 27,7 27,21l0,48c0,10 -7,18 -16,21l-84,25l0,92c0,41 -33,74 -74,74c-10,0 -19,-2 -28,-5c32,-0.1 54,-27.2 54,-69z" fill="#ffffff" id="svg_3"/>
  </g>
</svg>